<?xml version="1.0" encoding="UTF-8" standalone="yes"?>
<!DOCTYPE svg PUBLIC "-//W3C//DTD SVG 1.0//EN" "http://www.w3.org/TR/2001/REC-SVG-20010904/DTD/svg10.dtd">
<svg height="285" style="background-color:white" width="285" xmlns="http://www.w3.org/2000/svg" xmlns:svg="http://www.w3.org/2000/svg" xmlns:xlink="http://www.w3.org/1999/xlink">
	<path d="m 261.98306,225.24948 c 0,0 -9.6807,-7.73855 -14.31891,-11.84404 -4.55691,-4.03352 -8.921,-8.28231 -13.25825,-12.55115 -2.58372,-2.54298 -4.92776,-4.84903 -7.68332,-7.20472 -2.08788,-1.7849 -4.42608,-3.71448 -6.63559,-5.34642 -2.56916,-1.89758 -4.96597,-4.02921 -7.6014,-5.83363 -2.90183,-1.98682 -5.60074,-3.73549 -8.44216,-5.80777 -2.83504,-2.06763 -5.35652,-4.38397 -8.03688,-6.64852 -1.98255,-1.67499 -4.50153,-3.21419 -6.50193,-4.86783 -2.77377,-2.29295 -6.07511,-4.05801 -8.06275,-7.05813 -4.85977,-7.33528 -5.51373,-16.65781 -7.27371,-25.27907 -1.60094,-7.84216 -2.53922,-15.6232 -2.89741,-23.61909 -0.37454,-8.36091 -0.15876,-16.822721 0.20264,-25.184212 0.19507,-4.51321 0.0642,-9.203909 0.45766,-14.457181 0.39348,-5.253273 1.1475,-8.529554 1.31011,-12.589653 0.16283,-4.065593 -0.53418,-8.274277 -2.12132,-12.020816 -0.82298,-1.942702 -2.09685,-3.769439 -3.71231,-5.126524 -3.91464,-3.288539 -9.01577,-4.884718 -13.78858,-6.717514 -4.57899,-1.758368 -9.44911,-2.639508 -14.14214,-4.065864 -4.61793,-1.403529 -9.19349,-2.670377 -13.62474,-4.58326 -2.34884,-1.013946 -4.55425,-2.485567 -6.88135,-3.548468 -2.79796,-1.27797 -5.58723,-3.266886 -8.66206,-3.181981 -3.27164,0.09034 -7.20691,1.856293 -9.01561,3.889088 -1.639977,1.843173 -3.204908,3.360345 -4.445289,5.493011 -0.721081,1.2398 -0.93003,2.571451 -1.598531,3.802586 -0.668501,1.231135 -1.796555,2.361756 -2.38973,3.52718 -1.691534,3.323397 -3.480046,6.307874 -5.178259,9.627863 -0.902049,1.763496 -2.003705,3.628593 -2.707704,5.480078 -0.841104,2.212066 -1.587409,4.370166 -1.88849,6.717514 -0.503671,3.926822 -0.588558,8.169052 0.883883,11.844039 0.794126,1.982017 2.682567,3.278968 3.902021,5.031668 1.87013,2.687905 3.468313,5.572232 5.11359,8.40336 1.300032,2.237044 2.546066,4.096407 3.889088,6.717515 0.700703,1.367526 1.737732,2.540853 2.474873,3.889087 1.277388,2.336354 1.171378,5.729412 3.358758,7.247844 1.8934,1.31436 4.68462,1.18595 6.89429,0.530331 3.34446,-0.992322 4.66034,-3.113319 7.07969,-5.626668 3.13601,-3.257855 3.43095,-8.200237 3.70369,-12.051002 0.22542,-3.182725 -0.10619,-6.41234 -0.70711,-9.545941 -0.62827,-3.27624 -1.81259,-5.693179 -3.0052,-8.808649 -1.48403,-3.876751 -2.53819,-7.701084 -6.01041,-12.227778 m 9.91471,-13.065674 c -0.13014,4.176114 -0.36432,10.178482 -0.87154,14.10828 -0.50722,3.929798 -1.28748,5.787026 -4.71732,6.689926 M 139.47434,48.14447 c -3.45296,3.972287 -8.64158,5.641305 -13.10314,8.605001 -2.12791,1.413516 -6.97484,2.134551 -7.15385,-1.404722 m 9.55952,-0.05706 c -2.4905,2.386896 -4.14849,5.314306 0.66334,6.252337 3.86242,0.752948 6.32151,2.307849 6.42185,3.511944 m -8.53553,-4.265649 c -2.49765,-0.826867 -9.8888,-2.51031 -9.8888,-2.51031 M 88.189537,63.67897 c 1.861537,-0.448107 3.589943,-1.158229 4.469945,-2.630257 M 97.812873,25.627047 C 91.602954,24.592061 83.6544,20.092741 76.823395,19.991566 c -3.460755,-0.05126 -5.493759,1.684867 -7.488667,3.679775 -3.09985,3.09985 -5.719721,12.698935 -7.876012,16.720387 -1.869158,3.485952 -6.446699,20.045065 -6.262075,23.240691 0.218065,3.77447 2.523474,8.785548 4.260794,10.522868 5.587028,5.587029 7.758597,9.202856 10.20008,11.878575 4.964742,5.441058 10.647506,15.153748 15.687467,15.364678 3.136693,0.13128 5.80002,-2.572734 8.263357,-4.519022 2.211045,-1.746952 3.672499,-5.603204 3.26321,-8.636038 M 79.922154,54.917159 83.578747,53.732398 m -3.378498,1.094656 3.00945,0.600179 m -27.922572,9.12831 c 2.616428,3.180463 5.900292,0.815502 7.720969,0.174353 m 2.12169,-33.261255 c 0,0 -10.836071,-3.018131 -13.499707,-1.693339 -3.109399,1.546499 -6.212455,6.302887 -6.576039,9.326045 -0.266542,2.216267 -2.951953,6.750142 -3.476464,7.922967 -2.186451,4.888984 -2.078917,6.856702 -2.968684,12.137899 -0.968507,5.748556 -1.899427,12.461591 -1.794893,14.465298 0.125289,2.40153 2.803219,8.654085 3.89398,10.248899 1.332879,1.948818 4.16894,3.998464 5.251141,5.736749 1.771006,2.844678 6.815889,6.675768 7.836815,7.610459 1.665631,1.52494 6.123455,4.327512 7.638464,5.973202 2.24892,2.4429 7.200175,7.67429 12.270459,7.67429 7.540031,0 10.03816,-7.65313 8.370609,-10.75001 M 44.008018,77.274378 c 1.901181,-0.528243 3.802362,-0.820936 5.703543,-2.333268 M 39.737622,52.337755 c 0,0 -7.550122,2.293828 -9.664396,5.298288 -2.542834,3.61346 -1.620325,5.976448 -1.620325,13.092223 0,4.195676 0.583441,13.010868 1.29626,14.777361 0.669736,1.659725 4.818428,6.674935 7.453493,9.721948 2.618797,3.028201 7.116184,5.965505 9.693194,9.029345 3.225461,3.83479 5.998067,6.18103 10.528458,6.52577 3.974946,0.30247 6.660723,-2.22452 7.668976,-3.97586 m 44.969508,54.93179 C 106.44063,158.05751 98.94627,148.99345 98.651827,146.80541 98.241452,143.75589 93.21004,133.6804 93.05585,129.11429 92.663219,117.48709 91.75672,98.469445 91.682805,98.454662 M 172.5779,236.59593 c -4.50242,-4.43323 -10.58282,-13.27411 -13.43454,-14.06727 -1.29314,-0.35966 -2.84378,-1.87391 -3.1747,-3.1747 -0.17901,-0.70365 -3.95034,-2.73393 -6.64369,-5.53641 M 50.489481,107.94859 c 0,0 3.717895,7.63689 5.226658,11.60071 3.083716,8.10154 8.246242,16.45534 12.347067,24.69414 2.839839,5.7054 5.745142,12.66682 6.816357,14.55886 2.395638,4.2313 3.445012,7.13712 5.838921,11.3694 1.247282,2.20512 5.155971,8.5607 6.791352,10.49559 3.023711,3.57747 6.802146,6.6363 10.958022,8.79728 2.946792,1.53228 4.634432,1.37468 7.639452,2.26355 2.49699,0.7386 8.19809,7.82665 11.34416,11.47256 2.00141,2.31939 6.1582,8.40046 8.46326,10.41837 3.21984,2.81872 7.68609,10.14947 10.75192,13.47848 3.82699,4.1555 5.00347,8.32649 7.63935,10.08294 1.94907,1.29879 4.36922,6.50324 7.17702,8.72052 4.16782,3.29127 8.08514,11.19552 10.16074,12.70715 1.83169,1.33399 3.24868,4.72552 4.45011,5.76205 2.18643,1.88633 4.19462,3.77266 5.53036,5.65899" style="fill:none;stroke:#000000;stroke-width:1.79999995;stroke-linecap:round;stroke-miterlimit:4;stroke-opacity:1;stroke-dasharray:none;display:inline" />
	<!-- 
	Generated using the Perl SVG Module V2.50
	by Ronan Oger
	Info: http://www.roitsystems.com/
 -->
</svg>