<?xml version="1.0" encoding="UTF-8" standalone="yes"?>
<!DOCTYPE svg PUBLIC "-//W3C//DTD SVG 1.0//EN" "http://www.w3.org/TR/2001/REC-SVG-20010904/DTD/svg10.dtd">
<svg height="285" style="background-color:white" width="285" xmlns="http://www.w3.org/2000/svg" xmlns:svg="http://www.w3.org/2000/svg" xmlns:xlink="http://www.w3.org/1999/xlink">
	<path d="m 49.81462,106.87499 5.335948,-1.77672 M 50.147874,57.293986 c 0,0 -5.106082,-1.424707 -7.579017,-0.837425 -2.335575,0.554661 -4.243276,2.330724 -6.038136,3.924788 -1.175355,1.043865 -2.398344,2.178645 -3.019067,3.622881 -0.6802,1.582622 -0.503006,3.412764 -0.603814,5.132416 -0.111897,1.908799 -0.261294,3.84209 0,5.736229 0.457149,3.313899 1.676066,6.481861 2.717161,9.661017 1.070362,3.268528 1.858142,6.70896 3.622882,9.661017 1.097813,1.836422 2.557218,3.492418 4.226695,4.830509 2.951769,2.365852 6.435418,4.067982 9.962924,5.434322 4.347219,1.68385 8.935297,2.99473 13.585805,3.32097 3.026687,0.21233 7.812955,1.86155 9.057204,-0.90572 l 2.061424,-4.5847 M 71.570656,39.809398 c -6.070469,0.07221 -12.680536,-0.648677 -18.216794,2.307624 -3.707313,3.748266 -3.385912,9.701611 -3.242621,14.610903 0.563929,9.980685 5.4291,18.914676 8.117917,28.380053 1.9588,5.206222 3.923285,11.273325 9.038864,14.169416 7.876201,2.780526 16.300512,4.502906 24.679707,4.173906 4.666685,0.14544 7.423657,-3.18338 6.876835,-7.815242 m 27.070566,-39.481404 7.07706,1.842059 2.83441,2.87662 4.27815,4.942338 4.36124,5.58352 M 97.009184,28.444092 c -6.769196,-0.650121 -14.202655,-1.616207 -20.302612,2.133076 -3.573579,2.071693 -4.999051,5.117783 -5.135916,9.23223 -0.389724,5.970346 0.0892,12.76902 1.382074,18.562671 1.915375,6.608256 4.648433,12.943273 6.711534,19.50573 1.702081,4.712384 3.902674,9.709143 8.389917,12.383457 4.778615,3.121863 10.050691,5.697655 15.669099,6.850292 2.6124,0.414249 5.25795,0.579709 7.89651,0.725255 m 20.31348,-64.023252 c 1.40459,2.874377 2.82702,5.78482 3.59232,8.90561 0.7191,3.719167 1.05785,7.657908 -0.0721,11.331503 -0.59298,1.443129 -1.53664,2.71592 -2.48125,3.946049 m 15.26399,-13.616424 -4.22669,8.755297 -8.20294,7.737747 M 43.172671,96.610164 c 1.849643,-0.46535 3.709023,-0.942409 5.469581,-1.687138 1.37483,-0.64739 2.573457,-1.603309 3.779113,-2.515385 0.13811,-0.107843 0.275773,-0.216266 0.412323,-0.326079 m 18.114407,3.924788 c 1.526956,0.04035 3.07838,-0.0053 4.563324,-0.394736 0.632989,-0.177852 1.29995,-0.447803 1.663039,-1.031497 0.457639,-0.669384 0.763027,-1.431281 1.0194,-2.196648 m 13.887713,-6.64195 c 0,0 2.228626,-0.766893 3.320974,-1.207627 0.91915,-0.370853 2.717161,-1.207627 2.717161,-1.207627 M 114.72458,70.64618 c 0,0 2.80658,-0.664338 3.92479,-1.509534 0.80282,-0.606815 1.81144,-2.415255 1.81144,-2.415255 m 38.34216,-7.245762 c -2.5226,1.720547 -5.05617,3.427841 -7.57192,5.156665 -1.30018,1.300179 -2.60036,2.600359 -3.90054,3.900538 m -3.28706,13.839254 c -0.0919,-4.009271 -0.12898,-8.018542 0.5699,-12.027813 m -42.56886,35.624997 c 3.58153,-3.33381 7.27445,-6.699815 11.79834,-8.704357 4.22416,-1.970374 8.55091,-3.761711 12.47037,-6.319466 6.16983,-3.995576 13.05203,-6.628763 19.80969,-9.430623 m 30.70917,-7.337576 c -3.46615,-5.573951 -7.56036,-11.004086 -9.38263,-17.384828 -0.52419,-4.119588 -1.67499,-8.140883 -3.92306,-11.668139 -3.47046,-6.385501 -8.91624,-11.565871 -15.44715,-14.747719 -8.77072,-4.968011 -18.33759,-8.261707 -27.70836,-11.87215 -6.16433,-1.522742 -13.35365,-3.796001 -19.16247,-0.0059 -3.914771,2.096755 -4.915472,6.932615 -4.012523,10.980485 1.088239,8.936888 1.950312,17.937442 4.244813,26.675651 1.71116,8.533249 5.29256,17.105423 12.28241,22.643319 4.24086,3.158699 8.58957,6.376698 13.48924,8.432535 1.59929,0.641766 3.34971,0.4796 5.02284,0.322452 m 111.1017,-31.3983 c -2.82044,0.581528 -5.66046,1.181755 -8.34876,2.236592 -1.66544,0.792578 -3.53995,1.387377 -4.78422,2.824336 -1.00086,1.159234 -1.152,3.032996 -0.25129,4.2875 0.74186,0.798987 1.76278,1.273262 2.74841,1.700276 m -78.12473,14.613373 c 8.47839,-4.530431 18.74289,-4.891042 26.70988,-9.943238 8.93635,-7.545815 16.406,-16.604509 23.567,-25.762247 8.44428,-5.781758 19.58837,-7.463899 29.6648,-5.986011 8.25127,0.745486 21.67915,6.736377 16.62861,16.887888 -6.25608,7.117615 -16.98767,7.050645 -23.47739,14.081265 -8.26494,7.283411 -19.06729,13.827443 -21.29939,25.514972 -7.10713,16.57011 -19.32752,30.43319 -32.12483,42.89367 -6.95613,5.20502 -15.3018,11.48597 -14.34034,21.32217 0.54024,16.43393 8.26224,31.41825 12.86991,46.93685 4.67145,13.12614 10.45055,25.83907 13.95228,39.36846 2.21675,6.91223 5.01449,13.62083 7.70116,20.3589 M 73.36335,171.78495 c -4.194736,-4.72256 -8.10996,-9.76174 -10.710264,-15.56155 -3.727824,-7.89221 -7.56803,-15.75375 -10.697991,-23.90704 -2.422607,-7.21361 -2.854622,-14.95471 -5.678473,-22.0567 -1.340758,-3.63619 -2.348505,-7.37846 -2.802044,-11.234242 m 54.645128,41.663132 c 1.598632,2.14531 3.200134,4.30186 5.041444,6.24805 1.51533,1.48214 3.2285,2.7476 4.92148,4.01679 m 16.30297,11.47245 c 1.62996,0.93748 3.3205,1.83644 5.15656,2.2932 1.45348,0.35058 2.92351,-0.15177 4.2925,-0.60927 1.31464,-0.47249 2.59312,-1.0449 3.83484,-1.68393 m -58.569921,9.35911 c 1.670445,0.80024 3.354391,1.70243 5.180704,2.01616 1.298656,0.22308 2.641239,0.0208 3.951145,-0.1221 0.687471,-0.075 1.363303,-0.23551 2.038702,-0.38452 m 6.943856,88.76059 c -2.726307,-14.85637 -5.338819,-29.73547 -7.373467,-44.7046 -1.390118,-8.45251 -2.764109,-16.92268 -4.670805,-25.27522 -0.923037,-3.97346 -2.441437,-7.81424 -5.014798,-11.01861 -1.248472,-1.74821 -2.074712,-3.77417 -1.961058,-5.95072" style="fill:none;stroke:#000000;stroke-width:1.79999995;stroke-linecap:round;stroke-miterlimit:4;stroke-opacity:1;stroke-dasharray:none;display:inline" />
	<!-- 
	Generated using the Perl SVG Module V2.50
	by Ronan Oger
	Info: http://www.roitsystems.com/
 -->
</svg>