<?xml version="1.0" encoding="UTF-8" standalone="yes"?>
<!DOCTYPE svg PUBLIC "-//W3C//DTD SVG 1.0//EN" "http://www.w3.org/TR/2001/REC-SVG-20010904/DTD/svg10.dtd">
<svg height="285" style="background-color:white" width="285" xmlns="http://www.w3.org/2000/svg" xmlns:svg="http://www.w3.org/2000/svg" xmlns:xlink="http://www.w3.org/1999/xlink">
	<path d="m 108.35341,60.25598 c -2.10445,0.341893 -4.25069,0.789194 -6.38889,0.536148 -1.27885,-0.243478 -2.514982,-0.677532 -3.732034,-1.131497 m 39.292994,-8.632551 2.67907,-2.976742 m -21.83143,-2.792184 c 0.12603,2.72757 0.2452,5.516615 -0.41267,8.188842 -0.72978,2.151849 -2.22087,3.934121 -3.60478,5.698157 -0.30797,0.374939 -0.62054,0.746189 -0.9418,1.109827 m 7.14418,126.51153 c 0.89185,2.49283 2.07445,4.89974 2.68325,7.47666 0.57175,2.42011 0.59256,4.93803 0.88884,7.40705 m -19.6465,-34.82788 c 1.39772,0.36111 2.8301,0.68911 4.28242,0.65189 1.08593,-0.0682 2.04773,-0.6437 2.96779,-1.17464 0.78664,-0.47736 1.54508,-1.0014 2.27537,-1.56097 M 78.526454,91.63084 c -0.777742,18.51744 0.277288,37.47678 6.121349,55.17704 3.202317,8.58819 7.670703,17.07904 15.182154,22.64824 6.874823,7.07617 8.936593,17.33867 10.594393,26.73692 1.33324,13.15105 3.22839,26.23118 5.91107,39.17988 1.89838,10.01423 3.94672,19.999 6.00868,29.98058 M 88.409237,50.730405 c -4.835593,-0.232436 -10.341455,-0.778071 -14.366317,2.482662 -2.738023,2.600931 -3.440967,6.576792 -4.117663,10.132696 -0.358174,4.530913 -0.698583,9.266684 0.757254,13.650246 1.635651,3.549321 4.541254,6.34438 6.289408,9.828909 0.991313,2.77817 1.510962,5.738735 3.098614,8.282018 1.697623,3.70733 5.992849,4.696236 9.60399,5.497934 5.460927,1.40793 11.116757,1.84689 16.715477,2.37008 2.63588,0.0634 5.39456,0.014 7.87736,-0.95502 1.90861,-0.90148 1.91653,-3.355777 2.12325,-5.150024 M 84.837147,92.107119 c 1.28983,-0.05547 2.601068,-0.163008 3.829822,-0.585323 0.966379,-0.314288 1.572976,-1.187669 2.112872,-1.992726 0.45092,-0.698797 0.848236,-1.432111 1.201486,-2.184738 m 10.716273,-1.786045 6.25116,-2.679068 m 3.84179,-45.80187 c -3.07074,-0.318234 -5.70932,-0.520837 -9.22768,-1.055653 -3.16744,-0.481474 -7.029512,-1.876801 -9.814171,0.348307 -4.215425,3.19908 -6.246819,8.867906 -5.484902,14.055314 0.442344,8.451776 2.390982,16.721913 3.112427,25.143561 0.572593,5.57282 2.761375,11.802871 8.192564,14.331618 6.978652,2.929511 14.623822,4.221795 22.181532,3.755848 1.01876,-0.0316 2.0373,-0.07151 3.05521,-0.123904 m 15.60125,-68.983013 c -3.96714,-0.66837 -7.96264,-1.233087 -11.9913,-1.302425 -2.92614,-0.129806 -6.2232,-0.176695 -8.56013,1.865137 -1.58026,1.368784 -2.89647,3.063133 -4.74933,4.095614 -1.27263,0.745222 -2.37895,1.931192 -2.50537,3.47083 -0.34484,2.670722 0.15626,5.347389 0.81322,7.9309 m 10.64987,36.469668 c 0.40926,1.694752 0.80918,3.473499 1.85245,4.907045 1.37962,1.595955 3.56582,2.40987 5.65551,2.174952 1.27045,-0.08611 2.53112,-0.294266 3.77465,-0.563726 m 34.03027,-6.969361 c -4.45849,-5.86524 -9.13868,-11.682939 -12.0846,-18.498346 -2.23744,-4.390052 -4.98941,-8.691544 -8.82725,-11.844626 -2.61503,-1.118548 -4.79296,-2.917934 -7.12793,-4.491023 -4.11742,-1.97321 -8.09728,1.532162 -12.15815,1.963865 -6.77736,1.216314 -13.68133,2.525526 -20.58406,1.634516 -5.07401,-0.554295 -10.683459,1.245906 -13.443066,5.785499 -3.134842,4.625918 -0.832542,10.926143 2.831332,14.539116 3.630444,3.304087 8.125954,5.431312 12.233734,8.062428 4.68404,2.808632 10.44812,4.527042 15.84087,2.938784 1.67602,-0.68948 2.58849,-2.444914 3.52826,-3.87973 m 43.66062,10.636023 c -0.49612,-0.893022 -0.99225,-1.786045 -1.48837,-2.679067 m -5.95348,11.311619 c 2.0184,0.03826 4.17834,0.395032 6.02024,-0.673494 0.5731,-0.271566 1.13351,-0.570634 1.71929,-0.814878 m 4.76279,-0.595348 c 1.05051,3.175209 2.55891,6.282809 2.60565,9.695292 0.22652,3.808569 -0.37711,7.644599 -1.7552,11.201689 -0.95746,2.75184 -2.34853,5.3207 -3.52951,7.97742 M 127.99991,65.614115 c 0.45443,3.721962 0.98762,7.472339 2.19631,11.035711 0.92264,2.611494 2.86826,4.674946 4.65506,6.72605 0.67649,0.742874 1.36755,1.472734 2.07885,2.182411 m -25.59998,40.781363 c 0.54677,-4.86864 1.02444,-9.80793 2.55138,-14.48661 2.06499,-5.7775 5.18783,-11.14159 8.80557,-16.077691 2.31155,-2.94009 4.8345,-5.70902 7.39652,-8.431017 m -11.60929,55.367398 c 3.32441,3.57377 6.67752,7.16577 10.58489,10.1167 1.15285,0.86742 2.52928,1.46304 3.98604,1.49393 0.99568,0.0674 1.996,0.0556 2.99185,-0.001 M 172.65104,36.14437 c 0.75252,2.57853 1.53512,5.177282 1.79496,7.86055 0.18262,2.731171 0.16247,5.567073 -0.80697,8.162509 -0.58342,1.307466 -1.37945,2.511277 -2.19238,3.684849 m 14.30205,-4.22885 c -1.55807,1.499682 -3.16294,2.985684 -5.01095,4.125064 -1.43228,0.836068 -3.10671,1.070781 -4.71767,1.335208 -0.99634,0.144354 -1.99768,0.25549 -3.0016,0.330981 m 13.62324,7.90176 c -2.53062,0.801414 -5.05876,1.72063 -7.32093,3.131346 -1.00017,0.60544 -1.83117,1.472331 -2.34787,2.52606 -0.84914,1.598195 -1.44203,3.323633 -1.94049,5.058865 m -8.0372,-24.409284 c 2.10019,1.753068 4.23237,3.515649 5.95348,5.65581 2.23962,2.998958 4.23903,6.294667 5.09128,9.977123 0.10091,0.738346 0.0396,1.489344 -0.0308,2.227519 m 36.26703,183.10105 c -7.82731,-19.37824 -19.05732,-37.19859 -25.25849,-57.25258 -4.53214,-14.86805 -15.59218,-29.70013 -9.52341,-45.81612 7.11848,-24.49383 13.79344,-49.13774 22.7042,-73.06209 1.36436,-17.149448 -10.75673,-33.023152 -21.15463,-45.741076 -9.87836,-8.231444 -25.45624,-22.7338168 -38.3334,-11.769194 -4.25795,6.477775 -2.58518,14.985636 -2.94683,22.311669" style="fill:none;stroke:#000000;stroke-width:1.79999995;stroke-linecap:round;stroke-miterlimit:4;stroke-opacity:1;stroke-dasharray:none;display:inline" />
	<!-- 
	Generated using the Perl SVG Module V2.50
	by Ronan Oger
	Info: http://www.roitsystems.com/
 -->
</svg>