<?xml version="1.0" encoding="UTF-8" standalone="yes"?>
<!DOCTYPE svg PUBLIC "-//W3C//DTD SVG 1.0//EN" "http://www.w3.org/TR/2001/REC-SVG-20010904/DTD/svg10.dtd">
<svg height="285" style="background-color:white" width="285" xmlns="http://www.w3.org/2000/svg" xmlns:svg="http://www.w3.org/2000/svg" xmlns:xlink="http://www.w3.org/1999/xlink">
	<path d="m 188.71662,241.87697 c -1.94411,-13.76425 -4.59643,-28.49687 -13.77957,-39.44778 -5.62988,-3.87298 -12.12533,-6.72711 -17.40742,-11.30558 -6.26711,-4.87425 -13.32835,-8.64637 -19.1645,-14.06081 -6.55322,-3.42245 -14.19955,-3.75411 -21.24744,-5.6718 -7.41285,-1.50318 -15.40681,1.07616 -22.392366,-2.66184 -12.328206,-4.571 -16.447123,-9.36343 -47.47212,-9.14267 m 0,0 c -2.470814,-2.88081 -4.909101,-6.10033 -5.25631,-10.0166 -0.700534,-3.64933 0.281811,-7.77157 3.384426,-10.06475 3.662781,-2.74923 7.780032,-4.89648 11.993692,-6.67109 6.939178,-2.56308 14.191552,-4.95612 21.687888,-4.63247 8.065779,0.22872 11.32701,1.39862 18.804083,4.35193 1.1309,0.53009 6.928837,1.97502 8.019267,2.58329 m 37.9995,-8.53921 c -4.74333,1.14438 -9.4959,2.27565 -14.11372,3.8677 -6.40937,2.09234 -13.24017,0.87884 -19.80179,1.96676 -2.80247,0.38306 -5.59607,0.82888 -8.38592,1.29424 m -45.652471,18.06198 c -3.22737,2.24168 -6.90155,4.03654 -9.076587,7.33055 M 177.61564,91.159853 c -2.66436,5.397176 -6.58749,10.051607 -10.78778,14.315047 -3.12569,3.35711 -7.21758,5.5114 -10.89507,8.17257 -2.09249,1.4052 -4.20254,2.86413 -6.64293,3.59394 -2.83511,1.6561 -4.94116,4.28879 -7.13462,6.68258 -1.09664,1.26672 -2.16539,2.55792 -3.19715,3.87808 m -2.33067,-47.316234 c 5.68815,-1.093134 11.47522,-2.160024 17.29062,-1.597562 2.60686,0.210732 5.24772,0.844785 7.37304,2.441956 2.03153,1.425921 4.25449,2.887806 6.84282,2.831104 2.0242,0.08791 4.05354,-0.04696 6.06606,-0.259812 m 1.19928,11.168464 c -2.39988,-3.915955 -4.5341,-8.09757 -8.01345,-10.934048 m -3.00593,-12.616276 c -3.86916,3.025151 -11.19672,5.347251 -15.06588,7.2345 M 134.49261,64.688291 c 3.8845,2.670055 7.59987,4.832704 13.68922,14.117305 M 256.60337,217.11325 c -5.9841,-25.08818 -16.4738,-48.7654 -25.5161,-72.83703 -4.73005,-11.53237 -9.99368,-22.90369 -12.40096,-35.2273 -3.66636,-15.761926 -4.68066,-32.183478 -10.75646,-47.349353 -3.64482,-12.004272 -14.66127,-22.627495 -27.79686,-22.095363 -20.94462,-2.320289 -42.03803,-0.177264 -63.01535,-1.53721 -8.69904,-0.698306 -18.533222,7.086807 -14.73006,16.378502 2.08454,12.935141 8.18691,24.874993 15.02661,35.860436 6.39945,6.32826 15.49785,6.670704 23.88667,7.204137 7.34156,0.648001 14.64243,1.426843 21.37115,2.719331 2.50803,0.54712 5.57022,0.82176 8.2126,0.85598 M 101.89983,47.723802 c -3.174477,-0.504578 -6.510952,-0.65486 -9.073864,1.648912 -3.213739,2.670961 -6.285263,6.423815 -6.297571,10.80906 0.392955,2.79838 1.522404,5.323413 2.485146,7.91279 1.6941,4.173629 3.175795,7.968053 4.105854,11.243406 1.448239,5.96538 3.774828,12.589514 5.171986,17.879488 1.532849,5.803732 2.100409,8.431742 5.829209,11.958012 2.22652,2.44628 5.40601,4.21971 8.76649,3.64403 2.87247,-1.12987 4.58073,-4.1418 6.01041,-6.71752 M 154.625,114.5 c -10.5413,0.38205 -21.09488,0.69236 -31.64209,0.40119 -4.48017,-0.0897 -8.84132,-1.01246 -13.15322,-2.17528 M 87.434303,63.855183 c -3.456607,1.622958 -7.242216,3.663879 -8.324104,7.650378 -1.929476,4.250329 -1.83198,9.38556 0.863828,13.291606 4.774163,7.507656 10.876057,14.048553 15.742628,21.494243 3.298626,4.72665 7.729775,9.45354 13.828805,9.95756 12.01623,0.72996 24.08436,1.07881 36.1141,0.33035 2.01248,-0.0974 4.02466,-0.20132 6.03634,-0.31406 M 89.901872,98.257695 c 0.142902,4.748785 0.796219,9.746725 3.720889,13.663055 2.378726,3.10867 5.585213,5.95313 9.511589,6.7688 2.92806,0.25056 5.85326,-0.41048 8.79095,-0.16097 9.45275,0.2586 19.09505,2.19137 28.42321,-0.2196 1.04056,-0.37841 1.98105,-0.98671 2.89972,-1.59414 M 131.25,87.000001 c -0.86429,1.010898 -1.72117,2.051406 -2.77977,2.867128 -1.15564,0.848447 -2.44717,1.509067 -3.79352,1.996222 -0.50966,0.156975 -1.03013,0.2768 -1.55171,0.38665 m 10.31485,37.046449 c -0.86788,-1.75867 -1.76098,-3.5134 -2.39256,-5.37468 -0.53001,-1.51845 -1.23713,-2.96458 -1.91882,-4.41855 M 65,148.875 c 1.980762,0.35607 4.012215,0.70858 5.791414,1.70285 1.604837,0.82246 3.049428,1.91938 4.664043,2.72352 0.758097,0.40409 1.479305,1.14413 1.359544,2.07295 -0.102293,2.02753 -1.29035,3.7978 -2.567344,5.29448 -0.194263,0.2335 -0.390974,0.465 -0.59152,0.69314 m 27.525283,-0.43393 c -0.99229,1.26571 -2.00514,2.54283 -2.686976,4.00928 -0.383913,0.93402 -0.262635,1.97093 -0.190986,2.95258 0.07575,0.77652 0.187981,1.54956 0.331624,2.31639" style="fill:none;stroke:#000000;stroke-width:1.79999995;stroke-linecap:round;stroke-miterlimit:4;stroke-opacity:1;stroke-dasharray:none;display:inline" />
	<!-- 
	Generated using the Perl SVG Module V2.50
	by Ronan Oger
	Info: http://www.roitsystems.com/
 -->
</svg>