<?xml version="1.0" encoding="UTF-8" standalone="yes"?>
<!DOCTYPE svg PUBLIC "-//W3C//DTD SVG 1.0//EN" "http://www.w3.org/TR/2001/REC-SVG-20010904/DTD/svg10.dtd">
<svg height="285" style="background-color:white" width="285" xmlns="http://www.w3.org/2000/svg" xmlns:svg="http://www.w3.org/2000/svg" xmlns:xlink="http://www.w3.org/1999/xlink">
	<path d="m 156.63116,34.374086 c -0.0443,1.557128 -0.0548,3.184022 0.64573,4.616442 0.93918,2.131443 2.4177,3.959173 3.54663,5.985807 0.8557,1.409603 2.0075,2.891184 3.70463,3.258071 1.46778,0.137851 2.64961,-0.961291 3.63094,-1.905421 0.97296,-1.04624 1.63375,-2.348005 2.28292,-3.608568 m -13.38389,-11.975497 0.21348,-2.348283 1.14096,-1.959809 m -12.24271,6.184843 c -5.25065,-0.449525 -11.01334,-0.657818 -15.5755,2.427341 -3.56805,2.612677 -4.62012,7.349892 -4.16423,11.542881 0.374,3.621125 0.3295,7.287538 -0.58825,10.831874 -0.80436,4.739448 -0.58777,9.614215 -0.12402,14.380957 0.62991,4.856894 2.22493,10.017196 6.08333,13.275696 1.69166,0.874541 3.76244,1.58911 4.33323,3.648363 0.60439,2.159458 2.10425,3.976434 4.25151,4.731294 2.36228,1.03338 4.59143,2.33849 6.9086,3.46625 m -36.08871,45.886033 c 1.31104,-3.93569 2.44839,-8.0311 4.69364,-11.55489 1.57479,-1.9509 4.2782,-3.55729 4.10502,-6.40041 -0.13762,-3.73352 2.25546,-6.95584 4.3542,-9.82815 3.52249,-4.26685 8.00078,-7.59415 11.82214,-11.57645 2.57513,-2.60624 5.69481,-4.638443 9.19538,-5.759473 3.45529,-1.46375 7.14409,-2.43994 10.20991,-4.69525 m 0,0 c 0.19014,-1.11622 0.27925,-2.283959 0.74887,-3.325009 0.77244,-0.930839 0.52209,-2.213322 0.30825,-3.297844 -0.32642,-1.295027 -0.56219,-2.627952 -0.41188,-3.966294 0.17511,-2.112721 0.59226,-4.200011 0.67324,-6.322075 0.0802,-1.195852 0.15219,-2.392245 0.22046,-3.588832 m -0.63322,31.368697 0,-3.32097 -0.3019,-3.320983 m 61.23716,168.874703 c -4.9936,-11.97271 -11.32087,-23.28202 -18.35931,-34.15685 -7.35328,-12.64831 -14.37722,-25.63546 -18.25144,-39.833 -3.63487,-12.03945 -9.31519,-25.46123 -3.65508,-37.77424 5.9419,-12.92456 18.32319,-22.82694 19.83107,-37.63732 1.621,-9.21334 1.95929,-18.755123 -0.80756,-27.794039 -1.40305,-7.524997 -1.46889,-16.595917 -8.54136,-21.367184 -0.99356,-0.626473 -1.26806,-0.648512 -2.32855,-1.151807 m -20.40392,2.031647 c -2.38018,2.878692 -6.21281,5.01899 -9.98977,3.669712 -4.33804,-1.806841 -7.56798,-6.039155 -7.83464,-10.7876 -0.64634,-9.674772 -2.64519,-19.474589 -0.83359,-29.13502 0.71033,-4.578401 4.72227,-9.202958 9.69182,-6.870119 6.32353,2.346689 10.64544,8.205472 12.98178,14.3342 2.01656,4.503744 5.05073,8.718135 5.3037,13.810399 1.81822,5.370653 8.37858,6.980992 10.6273,12.137039 3.35922,5.733215 4.60787,12.367351 4.8016,18.933994 0.61415,8.977305 4.5923,17.702408 3.0784,26.804218 l -0.0742,0.65317 m -88.12956,8.48252 c -1.50274,1.87369 -3.83068,5.03247 -6.484114,4.75467 -2.63674,-0.0699 -5.21704,-1.07211 -7.09355,-2.9514 -1.85664,-1.97597 -4.615,-2.07819 -7.12736,-1.89218 -5.13147,-0.21955 -9.41084,-4.13907 -11.42669,-8.65488 -1.55548,-4.2966 -0.53859,-8.98326 -1.61611,-13.381436 -1.06823,-5.291781 -2.18545,-10.934289 -0.20219,-16.163879 1.16014,-3.573168 4.84325,-5.730565 8.47666,-5.820695 0.52281,-0.05341 1.04685,-0.09612 1.57173,-0.122818 M 128.87871,265.35981 c -5.87978,-19.26104 -11.33752,-38.64419 -16.65147,-58.06665 -1.41047,-6.40683 -3.95935,-12.54963 -8.1351,-17.66766 -3.37554,-5.25695 -8.618034,-8.90425 -12.367204,-13.7766 -6.62463,-12.44592 -5.89709,-26.96305 -9.17629,-40.36114 -0.79879,-4.72684 -3.01825,-11.25998 -2.77042,-16.1485 m 35.663614,82.78733 c 0,0 2.269,3.0249 3.17002,4.67955 1.04587,1.92065 2.5662,6.03814 2.5662,6.03814 m 13.43486,-44.83316 c 1.62678,0.80547 3.17057,1.80529 4.87666,2.42648 1.8,0.65538 3.6841,1.12387 5.58662,1.34736 1.6984,0.19951 3.44046,0.24858 5.13021,-0.0143 1.96568,-0.3058 3.79396,-1.1981 5.69094,-1.79715 m -43.17268,8.30244 -2.71716,1.81144 m -4.67955,3.92479 c 0,0 -2.22089,0.28425 -3.32098,0.15095 -1.16646,-0.14134 -3.381204,-0.99643 -3.381204,-0.99643 m -21.62279,-70.44533 c 0,0 2.50139,1.43574 3.84264,1.28088 1.07905,-0.12459 2.77525,-1.70784 2.77525,-1.70784 m 13.44926,0.21348 2.56177,-1.0674 1.494364,-2.77525 m 12.80882,-6.40441 5.55049,-2.1348 2.56176,-2.988725 m 18.6023,2.742148 0.61093,-3.382589 -0.95998,-3.067467 m -11.63536,-0.775179 4.69657,-0.853922 3.44033,-1.434493 m -4.72121,-15.003492 2.1348,-0.853922 1.70784,-2.348283 m 12.59534,-0.640441 0.99272,-3.677632 m 28.0406,1.542828 c 0,0 2.82757,-0.74151 4.05613,-1.494362 1.17021,-0.717093 3.02226,-2.796138 3.02226,-2.796138 M 100.72896,61.01388 c 0,0 -6.220944,-0.247463 -9.209314,0.472209 -2.19864,0.529488 -4.48154,1.294574 -6.19093,2.775244 -1.91002,1.654456 -3.21408,4.021896 -4.05613,6.40441 -0.62061,1.755994 -0.79245,3.694265 -0.64044,5.550489 0.12686,1.548975 0.847,2.990721 1.28089,4.483087 1.47091,5.059245 3.14945,10.05995 4.48308,15.157104 1.05306,4.024799 1.33552,8.265157 2.77525,12.168377 0.5838,1.58272 1.23839,3.21267 2.34828,4.48309 1.7797,2.03711 4.37662,3.18203 6.61789,4.69656 0.9813,0.66311 1.936004,1.37871 2.988734,1.92132 1.02187,0.52671 2.07881,1.03668 3.2022,1.28088 1.46192,0.31778 2.98823,0.27325 4.48309,0.21348 2.79572,-0.11179 5.60393,-0.41903 8.32573,-1.0674 1.84677,-0.43993 5.36891,-1.9004 5.36891,-1.9004 m 4.14316,-67.271387 c -5.50116,-0.549599 -11.06826,-0.957697 -16.57895,-0.367941 -2.88446,0.273641 -4.57275,2.788527 -5.9171,5.053887 -2.08504,2.420971 -3.90283,5.29626 -3.67062,8.63756 0.10645,4.101182 1.25787,8.09038 2.27019,12.0399 1.45152,4.208717 2.21101,8.596155 2.77468,13.000762 0.70461,4.463028 0.86099,9.132901 3.05641,13.204759 0.98046,2.31621 3.13443,3.86291 5.55231,4.38381 3.44792,1.17205 7.02646,2.38649 10.72498,1.90087 1.92214,-0.11022 3.82692,0.24536 5.72207,0.51112" style="fill:none;stroke:#000000;stroke-width:1.79999995;stroke-linecap:round;stroke-miterlimit:4;stroke-opacity:1;stroke-dasharray:none;display:inline" />
	<!-- 
	Generated using the Perl SVG Module V2.50
	by Ronan Oger
	Info: http://www.roitsystems.com/
 -->
</svg>