<?xml version="1.0" encoding="UTF-8" standalone="yes"?>
<!DOCTYPE svg PUBLIC "-//W3C//DTD SVG 1.0//EN" "http://www.w3.org/TR/2001/REC-SVG-20010904/DTD/svg10.dtd">
<svg height="285" style="background-color:white" width="285" xmlns="http://www.w3.org/2000/svg" xmlns:svg="http://www.w3.org/2000/svg" xmlns:xlink="http://www.w3.org/1999/xlink">
	<path d="m 111.72258,184.32577 c 2.54455,6.44288 4.05867,9.57724 5.7384,14.49469 4.76061,13.93677 8.02458,28.34202 12.26756,42.44499 2.77745,9.23179 4.2518,13.19009 7.4881,27.43158 M 116.56026,187.22601 C 97.96187,178.14562 92.099827,153.73445 88.704701,126.35384 m 39.001869,61.13027 c 2.42168,0.52668 5.0871,-1.87153 7.69862,-3.62288 3.36964,-0.30381 5.15247,0.34446 10.31579,-1.03556 m -11.44794,-8.77642 c 2.64464,8.82664 9.12515,8.70595 14.34058,8.90626 m -16.68035,-28.37924 c 0.73953,-4.22696 8.08879,-9.95531 12.83104,-13.13295 2.04804,-1.37233 3.92312,-4.03958 4.15416,-5.90347 m -48.52934,-27.03472 c 1.86216,0.70991 2.51255,1.37402 3.44515,2.63505 m -18.121925,0.40705 c 0.200708,-1.89373 2.965976,-4.33275 5.443749,-4.37635 M 102.0436,81.980199 c 2.27712,-2.127404 4.55425,-2.387044 6.83137,-2.561765 m 13.98296,56.785766 c 1.44611,-3.52669 7.17909,-4.43996 10.71751,-2.73967 m -22.76395,14.76061 c 0.1123,-3.26278 1.65299,-7.57775 7.46049,-7.00825 3.68955,1.27081 5.08762,3.05185 7.25667,5.24193 M 99.677673,92.90809 c 0,0 -13.624216,5.512935 -16.653306,11.55165 -1.963955,3.91529 -0.856175,8.95287 0.45286,13.13295 1.219932,3.89555 6.518021,10.76392 10.717691,15.39724 3.020233,3.3321 6.788272,5.90255 10.264832,8.7553 4.58361,3.76116 7.78228,9.92791 13.96319,11.01959 5.8341,1.03044 7.97933,-5.92103 6.87342,-8.98438 m -2.11839,-47.623137 c 2.60231,3.089075 3.13767,5.587597 4.47497,8.315237 m -5.83229,-26.708099 c -3.04548,-4.62673 -14.84127,-5.992403 -19.3233,-3.04252 -3.591152,2.363547 -3.844102,9.834449 -3.32097,14.038666 0.91266,7.334675 1.55376,14.906763 4.37765,21.737293 1.98346,4.79768 5.98835,8.49774 8.60434,12.98199 1.56484,2.68239 2.13975,6.00274 4.2267,8.30243 3.28444,3.61926 8.68155,12.64757 10.41578,13.43486 2.19972,0.99861 5.50585,1.42326 8.15148,0.75476 3.09385,-0.78175 4.5084,-7.12343 3.76919,-8.35545 m -4.97609,-12.72672 c 0.41251,-3.79105 2.44147,-3.4044 6.2443,-3.36232 3.44955,0.0382 6.41342,0.75799 7.3117,4.80331 0.1121,1.41077 0.23873,2.83608 0.21348,4.1095 M 130.6879,63.249463 c -3.47338,-0.603518 -5.83998,0.490022 -7.81184,2.188824 m 35.04602,-12.491415 c -1.63753,-0.222818 -5.25722,-0.79789 -8.21899,2.134804 m -2.82544,24.621707 c 2.27326,2.086564 2.55934,4.031187 3.55454,6.026461 m 14.26789,31.634716 c 0.0821,-0.0365 0.0925,-2.8754 -0.21348,-3.78927 -1.21788,-2.37052 -3.59895,-4.39697 -6.2443,-4.48309 -3.9597,-0.12891 -5.27359,3.19072 -5.3442,6.70494 m 19.33972,1.9465 c -2.93818,1.65498 -5.76031,4.00628 -8.87902,4.57811 m 12.67367,-49.389448 c -0.0491,4.659528 -0.11309,9.363743 0.11411,13.194391 -1.25827,5.615913 -1.81713,11.511592 -4.36897,16.610077 m 3.63064,-30.840965 c -0.23932,4.793746 -1.60949,13.216827 -3.87349,15.406428 M 152.76287,114.639 c 1.01465,12.20023 12.94505,9.42932 16.21269,2.3658 3.83152,-8.28244 3.57014,-29.739155 1.80871,-32.569578 m 1.38118,-32.72001 c 0,0 -5.20461,-4.240518 -16.98536,-3.938472 -3.50353,0.08983 -6.51984,3.216166 -7.47219,7.396717 -1.53761,6.749697 1.55527,24.108381 2.5662,29.662342 0.88375,4.855283 2.18883,14.642479 2.18883,14.642479 m -5.43432,-38.040255 c -5.49646,-2.210762 -11.7102,-4.436198 -17.48996,-3.14044 -3.50395,0.785547 -7.49287,2.894364 -8.77556,6.248386 -1.08538,2.838084 0.43944,9.094066 1.11434,13.588318 1.95594,13.024827 6.03123,25.650703 8.47964,38.591993 0.78953,4.17315 2.34228,15.91857 3.61418,17.5246 2.85694,3.60748 8.24759,5.02572 12.12564,3.41528 3.88247,-1.61227 5.74922,-6.82756 6.14633,-11.01269 0.58031,-6.11587 0.74992,-18.47393 0.21971,-27.175192 m 42.01766,-26.464254 c 2.22777,-0.37168 6.12758,0.222225 4.93542,-4.854819 M 188.6224,43.405621 c 0,0 1.01547,6.56847 2.18269,9.654488 2.35405,6.223874 7.45802,11.20569 9.58554,17.510594 2.09892,6.220153 2.32699,12.937272 2.94359,19.472988 1.15736,12.267589 1.36031,33.263559 1.40816,36.939369 0.10158,7.80312 -9.88423,23.26722 -12.71243,27.78771 -2.45138,3.91819 -8.53066,16.8449 -8.92348,19.50491 -0.55502,3.75831 -0.67668,7.67312 0.0755,11.39699 2.16417,10.71436 4.77053,12.00069 8.36696,23.58504 2.10156,6.76926 4.61003,11.83609 7.52211,19.44709 1.75235,4.57995 6.4076,16.88575 6.67847,17.50018 M 188.50314,38.003249 c 0.088,5.143757 0.17605,8.467012 0.26408,11.962315 -3.18803,1.089387 -5.58592,0.937024 -8.37791,-1.735964 -0.4338,-1.789031 -0.57913,-3.924221 -0.30191,-6.566472 2.10214,-2.472877 4.41718,-5.678904 8.41574,-3.659879 m -5.76397,39.493863 c -8.03697,-0.918036 -10.91683,-12.93986 -10.67402,-22.201956 0.20894,-7.970345 0.25674,-21.543584 8.7527,-21.561514 6.19278,-0.01307 7.97367,4.09658 7.68529,4.269607" style="fill:none;stroke:#000000;stroke-width:1.79999995;stroke-linecap:round;stroke-miterlimit:4;stroke-opacity:1;stroke-dasharray:none;display:inline" />
	<!-- 
	Generated using the Perl SVG Module V2.50
	by Ronan Oger
	Info: http://www.roitsystems.com/
 -->
</svg>