<?xml version="1.0" encoding="UTF-8" standalone="yes"?>
<!DOCTYPE svg PUBLIC "-//W3C//DTD SVG 1.0//EN" "http://www.w3.org/TR/2001/REC-SVG-20010904/DTD/svg10.dtd">
<svg height="285" style="background-color:white" width="285" xmlns="http://www.w3.org/2000/svg" xmlns:svg="http://www.w3.org/2000/svg" xmlns:xlink="http://www.w3.org/1999/xlink">
	<path d="m 128.72864,76.002749 7.87807,3.222571 m -6.17022,-14.110068 c 3.55801,-1.707844 5.6928,-2.846403 6.40441,-3.415685 m -23.26936,23.482837 c 1.60759,-0.113226 3.21472,-0.225996 7.04485,-2.561764 M 96.706593,92.654216 c 1.735048,-0.413358 3.628277,-0.747626 4.269607,-1.707843 m -21.988475,0.21348 c 2.140574,0.148091 3.979148,-0.0058 5.550489,-0.42696 M 162.67202,62.340008 c -1.92596,1.394912 -3.85992,2.804574 -5.55689,4.478078 -1.25406,1.344422 -2.19574,2.940223 -3.16036,4.495697 -0.0837,0.139383 -0.16691,0.279007 -0.24893,0.419359 m 4.69657,-19.42671 c -0.87642,1.173302 -1.77036,2.353821 -2.87475,3.324586 -1.03814,0.797309 -2.25675,1.31111 -3.44632,1.836631 -0.31414,0.133122 -0.62973,0.262939 -0.94777,0.386506 m -1.1448,3.707278 c 1.26779,2.811438 2.47943,5.657466 3.39834,8.604101 0.4336,1.351581 0.42198,2.786239 0.20934,4.175477 -0.18969,1.861437 -0.31462,3.729791 -0.50383,5.591681 m -1.3081,-35.525033 c 0.0506,4.027109 0.13638,8.073659 -0.34684,12.079784 -0.32722,2.164192 -0.79275,4.382538 -2.04888,6.220603 -0.32665,0.526346 -0.66732,1.044008 -1.01997,1.553285 M 88.875098,59.980222 c -2.545041,-0.821278 -5.234739,-1.788602 -7.942121,-1.421814 -2.795636,1.00541 -4.368365,3.932554 -5.297326,6.581985 -1.711223,5.788699 -1.440316,11.873336 -1.705623,17.834509 0.111942,3.491067 0.440403,7.427569 3.091475,10.012494 1.256631,1.843342 2.993841,3.287706 5.09368,4.070968 3.595748,1.631365 6.273062,4.761936 9.957893,6.252026 2.368672,0.97343 4.824267,2.58575 7.49132,1.762 1.969014,-1.02996 4.897124,-2.19278 4.905074,-4.79353 l 0.0261,-0.328001 0.0152,-0.304819 m 17.09991,-1.798966 c 0.68615,-1.944538 1.1517,-3.962608 0.15226,-6.46901 M 108.49912,47.69409 c -4.51143,-2.162863 -9.89528,-4.022882 -14.802394,-2.037803 -3.406163,1.245246 -4.732637,5.001901 -4.871155,8.340497 -0.226025,4.658307 0.428087,9.313333 0.124809,13.975555 -0.359829,7.604974 1.047274,15.125403 2.24123,22.597176 0.570779,2.938121 2.91637,5.181828 5.301503,6.781268 2.359552,0.824725 4.844897,1.306134 7.229807,2.090865 4.51453,1.225682 9.2133,1.553682 13.874,1.352922 m 12.62982,-59.278552 c -4.06006,-1.744667 -8.27249,-3.50853 -12.78159,-3.390863 -2.78946,-0.258697 -5.15332,1.697751 -6.43117,4.021505 -1.69046,3.019271 -3.15701,6.287136 -3.30016,9.800287 -0.60672,6.6979 -0.18412,13.431028 -0.45726,20.143885 0.0234,4.7433 -0.01,9.881408 2.75456,13.971741 1.45508,2.054133 3.38851,4.028215 6.04558,4.2561 3.54713,0.732579 7.1499,1.186266 10.64396,2.176461 0.68127,0.168344 1.3621,0.338496 2.04224,0.511364 m 44.7398,-32.192401 c -3.13651,-6.885262 -6.24707,-13.811687 -10.04097,-20.364392 -3.25674,-5.075506 -8.29661,-8.77899 -13.53624,-11.611009 -3.71866,-1.883639 -8.28212,-3.028698 -12.31089,-1.50399 -4.09645,1.98789 -5.25907,6.715717 -6.4919,10.696126 -1.74396,6.193756 -2.41002,12.624235 -4.02536,18.849581 -0.87913,4.793647 -0.43477,10.299352 3.07155,14.000104 3.38826,3.839316 6.13719,8.191226 9.39977,12.124692 0.78359,0.845673 1.83383,1.363978 2.84221,1.888378 m 19.6082,-6.599413 c -5.30972,0.325298 -10.49771,1.778965 -15.20828,4.24707 -11.14793,5.818805 -21.90558,12.473007 -31.7925,20.258926 -4.09683,3.87545 -6.85358,8.90492 -9.84126,13.63099 -0.91539,1.52693 -1.81434,3.06386 -2.68647,4.61594 m 71.4961,-58.642956 c -1.17125,1.332676 -2.43642,2.587321 -3.53645,3.980013 -2.31248,2.927702 -4.24828,6.134506 -6.41732,9.170008 -0.66781,0.93458 -1.62259,1.710276 -2.03089,2.783918 -0.63606,1.672568 -0.46193,3.554721 -0.51746,5.343287 -0.042,1.354418 0.0934,2.708532 0.14008,4.062798 m 31.38161,-23.482837 c 2.74861,-0.455238 5.72456,-1.440002 6.83137,-0.853922 M 178.25608,29.677516 c -0.0787,3.120051 -0.099,6.25757 0.36274,9.351971 0.15818,1.453351 0.41291,3.201697 1.81075,3.996657 1.10301,0.600027 2.4615,0.704449 3.62136,0.198622 1.29956,-0.405132 2.63085,-0.713594 3.95867,-1.01449 2.05645,-0.404056 4.13207,0.141146 6.14696,0.531233 0.25081,0.05514 0.5013,0.111793 0.75099,0.171788 m -16.43799,25.40416 c -8.27122,-5.962064 -4.77945,-16.714869 -5.34148,-25.35335 -0.0956,-6.992272 0.80329,-16.75967 9.19702,-18.435811 9.68638,-1.714931 11.90081,11.222883 12.58245,18.385001 3.70471,7.910369 8.20866,16.315964 7.85444,25.409346 -0.7161,11.149712 -8.1611,20.092295 -12.14566,30.192323 -4.24509,7.832584 -6.00313,16.690624 -10.04444,24.566464 -5.43277,10.52177 -17.57875,17.91531 -17.52483,30.78838 0.94266,15.94375 7.79444,30.75968 9.37061,46.60741 2.65105,16.89788 9.87822,32.60272 17.79331,47.59068 1.05473,2.30503 1.94171,4.70985 2.1348,7.25833 M 103.111,175.05763 c 1.20972,1.14412 2.41945,4.48436 3.62917,11.31445 m 5.12353,77.49337 c -2.16287,-14.5239 -5.02885,-28.93063 -7.27145,-43.43965 -1.04445,-9.37262 -2.16824,-18.74539 -4.22471,-27.96157 -1.966067,-9.10826 -2.679306,-18.60136 -6.436191,-27.2267 -0.824379,-2.32073 -1.493066,-4.7011 -1.427391,-7.18894 m 7.831802,0.35757 c 1.63224,-0.21792 2.77194,-0.92838 3.84264,-1.70784 m 19.85368,-10.46054 c 1.7052,3.24481 6.62108,5.15185 15.1571,5.55049 M 96.279632,160.114 c -2.054299,-1.81514 -7.37628,-2.80514 -9.461598,-6.24932 -5.243141,-7.21718 -5.905623,-16.50229 -6.591421,-25.10433 0.04879,-9.33735 0.222316,-18.72053 -1.140296,-27.99 -0.211478,-1.777748 -0.03691,-3.566389 0.114888,-5.34089" style="fill:none;stroke:#000000;stroke-width:1.79999995;stroke-linecap:round;stroke-miterlimit:4;stroke-opacity:1;stroke-dasharray:none;display:inline" />
	<!-- 
	Generated using the Perl SVG Module V2.50
	by Ronan Oger
	Info: http://www.roitsystems.com/
 -->
</svg>