<?xml version="1.0" encoding="UTF-8" standalone="yes"?>
<!DOCTYPE svg PUBLIC "-//W3C//DTD SVG 1.0//EN" "http://www.w3.org/TR/2001/REC-SVG-20010904/DTD/svg10.dtd">
<svg height="285" style="background-color:white" width="285" xmlns="http://www.w3.org/2000/svg" xmlns:svg="http://www.w3.org/2000/svg" xmlns:xlink="http://www.w3.org/1999/xlink">
	<path d="m 97.109278,183.90737 c 1.59316,3.67248 2.971952,7.29137 3.923002,10.80333 m 4.40391,72.56313 c -0.50633,-7.75787 -1.82579,-15.08499 -2.42111,-18.4168 -0.83954,-4.69871 -1.1552,-12.035 -1.49246,-14.27302 -0.73797,-4.89705 -2.586963,-12.13118 -2.86082,-14.44288 -0.181047,-1.52825 -2.471956,-10.10593 -2.471956,-15.12231 0,-5.82944 -2.006701,-9.69647 -2.641813,-14.88088 -0.140273,-1.14505 -0.569094,-3.22309 -0.773394,-4.35846 -0.351925,-1.95578 -2.216282,-7.13334 -3.404002,-10.75952 -1.334482,-4.07424 -6.091279,-11.89262 -6.091279,-11.89262 m 37.000194,-11.0623 c 0.98821,1.23526 4.87362,3.87501 6.8845,4.75959 0.94406,0.41529 6.07257,2.13154 7.54064,2.23331 2.77148,0.19212 7.58889,0.21327 7.58889,0.0441 M 73.089596,93.567117 c 0.28796,0.255562 1.094413,0.805064 3.420384,0.805064 1.091864,0 1.898346,-0.180005 2.403436,-0.37315 m 16.853951,70.601129 c 1.444502,-0.37019 2.518742,-0.37011 4.661753,-1.43881 M 72.218076,97.675228 c 0,0 2.064848,17.722502 2.302542,26.991682 0.157449,6.13991 0.197323,15.19116 0.494134,17.60288 0.508343,4.13052 2.274048,11.23728 2.532311,12.20113 0.359833,1.34292 1.594322,2.46582 1.990498,3.79847 0.226006,0.76023 0.795684,1.80698 1.702527,2.50601 0.688343,0.5306 1.515968,2.29024 2.441253,2.55861 1.400475,0.40619 2.083159,1.75882 3.720273,1.80376 1.575798,0.0433 2.602135,0.61712 3.646447,0.61344 M 81.702679,58.145551 c -0.732301,-0.913077 -4.015757,-1.726187 -6.171337,-0.797665 -1.092099,0.470424 -2.086315,0.74927 -2.930095,1.587134 -0.499429,0.495926 -0.914445,1.197691 -1.220874,1.83131 -1.332451,2.755176 -3.001416,5.395145 -3.662618,8.383327 -0.706008,3.190672 -1.689449,16.212694 -0.406958,20.999016 0.732434,2.733482 2.667811,5.056309 4.557926,7.162455 0.812201,0.905032 1.386095,1.165874 2.503388,1.645884 1.960653,0.842334 4.966761,3.915438 6.167702,4.238148 1.166797,0.31353 7.36943,4.73685 11.38085,4.55793 3.910974,-0.17444 7.047402,-2.57763 7.668845,-4.81054 m 19.277042,-2.92141 c 1.49666,-4.133022 -0.93369,-5.263037 -2.99929,-6.671982 m -25.604051,2.089964 c 2.597617,-0.05581 4.362013,-0.506078 5.453232,-2.360354 m 6.923979,-47.650416 c -2.04049,-0.370588 -3.049448,-1.098429 -4.645016,-1.184503 -0.766253,-0.04134 -1.512874,0.369829 -2.278963,0.325566 -1.064285,-0.06149 -2.027023,-0.753429 -3.092878,-0.732523 -2.042158,0.04005 -3.978633,0.995781 -5.86019,1.790613 -1.14091,0.481958 -2.162588,0.807374 -3.011486,1.709222 -0.781895,0.830664 -1.470556,1.977351 -1.709223,3.092878 -1.090049,5.094885 0.08562,10.422514 0.325566,15.627174 0.350732,7.607817 0.953865,18.652777 1.627831,22.789629 0.315311,1.935402 0.52268,3.977772 1.465047,5.697408 1.070088,1.952701 2.701877,3.653364 4.557926,4.883491 1.974604,1.308703 5.482218,2.232853 6.674106,2.278963 0.875959,0.0339 2.014612,0.95116 2.848704,1.22087 1.915846,0.6195 3.456046,1.12777 5.453236,1.38366 3.03606,0.38899 9.18217,0.0907 9.18217,0.0907 m -6.19834,-18.454863 c 1.37382,0.450785 5.54049,0.688656 8.12463,-1.572508 M 127.9783,38.540014 c 0,0 -4.77844,0.237233 -7.01738,-0.137941 -4.27004,-0.715522 -10.58761,-0.869486 -13.10357,0.583106 -0.71974,0.415541 -1.10758,1.239426 -1.6679,1.853219 -0.76626,0.839387 -1.34962,1.597906 -2.03855,2.501845 -0.63904,0.838479 -1.44493,1.681287 -1.76055,2.687168 -0.17594,0.560711 -0.17166,1.173053 -0.18536,1.760558 -0.12265,5.249445 -0.36257,10.521257 0.0927,15.752361 0.64593,7.421791 0.81836,14.983664 1.57523,23.257899 0.0499,0.545044 0.15832,1.120768 0.46331,1.575236 0.22041,0.328443 0.58215,0.546858 0.92661,0.741288 1.63393,0.922261 3.56845,1.180918 5.28167,1.945879 1.085,0.48446 1.76511,1.237057 2.8725,1.667898 1.36843,0.532402 3.11095,0.683443 4.54038,1.01927 1.32096,0.310342 2.56351,0.458431 3.89176,0.741288 1.06015,0.871857 2.84198,2.257494 2.84198,2.257494 m 3.71378,-33.136756 c 1.10209,0.410963 1.88015,0.78662 3.82227,-0.02316 0.93516,-0.389923 2.02858,-1.011836 2.82616,-1.158262 m -1.35781,19.455663 c 0.52129,-1.529797 0.19069,-2.846622 0.01,-4.200923 m -6.33287,2.4701 c 2.56442,0.419974 3.68754,0.58973 5.83804,1.638782 2.28873,0.288825 5.05194,2.839177 7.85566,4.150095 m 16.20583,-55.229087 c 0,0 -1.43946,-1.45862 -2.28645,-1.873705 -1.03169,-0.5056 -3.11487,-2.228698 -4.28792,-2.800461 -1.20607,-0.587854 -2.43879,-0.67109 -3.76657,-0.863894 -4.09959,-2.037739 -6.7106,-2.376826 -12.50921,-0.65656 -1.09302,0.324265 -2.7325,2.897675 -3.38647,4.284919 -0.83652,1.774481 -2.44327,6.7814 -3.17912,10.297627 -0.41794,1.997058 -0.96757,6.08182 -0.96757,6.08182 -0.77426,1.238819 -1.96704,8.216045 -2.55712,12.301863 -0.16189,1.120948 -0.5341,1.306751 -0.5341,3.382948 0,2.029446 0.3132,2.24131 0.60319,3.320876 0.26473,0.985485 0.82124,1.813568 1.31314,2.695352 0.71904,1.288976 3.25471,5.114213 3.66291,5.943597 0.39294,0.798387 1.12513,1.70676 1.65868,2.418905 0.9062,1.20954 2.23504,1.477686 2.90268,2.833576 0.22389,0.454686 0.89959,1.1957 1.10579,1.658678 0.50437,1.132499 1.04517,1.272505 1.65868,2.349794 0.23252,0.4083 0.97208,1.059003 1.31311,1.382232 1.39722,1.324303 5.23076,4.170931 5.23076,4.170931 m 6.64753,-24.774169 c 0.0581,-0.549045 1.21376,-0.339987 2.42724,-0.167093 1.63335,0.883294 2.81921,4.083165 3.95702,7.699351 1.10456,3.510485 1.26519,7.916999 0.64333,11.555066 m 0.88398,-24.363972 c -0.26433,0.393865 -1.3268,1.263719 -1.68957,1.361015 -0.77552,0.208001 -1.71358,0.384659 -3.47039,0.03623 m -3.5496,4.684232 c 1.06482,-1.052229 1.56288,-1.608785 2.23925,-2.41429 2.84474,-3.387865 2.76078,-10.82621 2.76397,-13.072619 m 2.66028,37.11692 c -0.0211,-1.1374 -0.0918,-2.258261 0.65987,-3.653263 1.16222,-1.949857 2.82992,-2.383271 4.364,-3.217539 M 99.580078,124.24716 c 2.075622,-2.71027 4.151252,-5.99347 6.226872,-9.21576 0.8926,-1.58994 1.48809,-3.12046 2.98889,-4.83205 1.45427,-2.03012 3.06245,-3.5985 4.78224,-4.83205 0.58918,-1.25397 2.30149,-2.97889 3.63649,-3.6863 0.63114,-0.83853 1.31599,-1.720168 2.49074,-1.992601 2.21062,-1.126983 4.1602,-2.863711 6.72502,-3.636492 1.39174,-0.928665 6.80081,-3.091472 9.88596,-4.563397 3.08514,-1.471924 4.4114,-2.634729 6.25409,-3.656069 2.8394,-0.774974 5.71676,-1.897839 8.16965,-3.188156 2.59282,-0.901847 5.04053,-1.890756 6.97409,-3.188157 m -4.75842,13.440213 c 0.0514,-1.589707 0.58668,-3.626957 1.40012,-4.76912 0.21098,-0.690725 0.35862,-1.508131 0.69063,-1.956785 0.84392,-1.592194 0.0698,-0.806218 1.69415,-2.788608 0.26715,-1.154629 0.84016,-1.983269 1.83129,-2.590599 0.18102,-1.006669 1.05352,-1.79945 2.03055,-2.540785 0.49563,-1.02239 1.1798,-1.960281 2.20585,-2.850064 l 1.43108,-2.40173 c 1.69202,-2.146607 1.9039,-3.18311 2.62856,-4.6042 0,-0.0295 0.82001,-2.612044 1.30049,-3.748651 0.3011,-0.712281 1.30879,-1.226838 2.14603,-0.834725 m 24.86244,-3.823871 c 2.5671,-1.830261 6.75092,-2.075851 8.64527,0.345793 m -26.76785,7.374971 c -3.00439,-1.502196 -7.20376,-3.798472 -8.46006,-5.452238 -1.67295,-0.849221 -5.41167,-4.152127 -6.71503,-6.297058 -0.89252,-0.685243 -3.51006,-3.245718 -4.2107,-4.250195 -0.41095,-0.714782 -0.30518,-0.597802 -1.30355,-1.480611 -1.75532,-2.441571 -3.30923,-6.128192 -3.61893,-8.193797 -0.0683,-3.755491 -0.54625,-6.21363 0.13657,-7.715826 0.68281,-1.502196 2.34158,-4.366594 3.16095,-4.981129 0.81938,-0.614535 2.89844,-1.409867 4.96483,-0.667033 m 32.13781,237.29438 c 0,0 -1.21348,-4.33586 -2.01434,-6.44588 -1.1156,-2.93927 -2.90908,-5.63501 -3.85601,-8.63288 -0.35356,-1.11933 -0.35832,-2.32732 -0.69063,-3.45315 -1.5652,-5.30273 -4.24023,-10.21755 -6.10057,-15.42407 -0.67774,-1.8968 -1.13227,-3.87006 -1.84168,-5.75525 -1.35563,-3.60247 -3.20359,-7.00444 -4.6042,-10.58966 -0.67997,-1.74055 -1.26141,-3.51855 -1.84168,-5.29483 -1.50753,-4.61477 -2.81305,-9.29323 -4.25888,-13.92771 -1.05522,-3.38243 -2.21673,-6.69992 -3.10783,-10.12924 -0.31509,-1.21259 -0.58025,-2.4401 -0.8283,-3.67155 -0.24804,-1.23145 -0.47898,-2.46683 -0.72563,-3.69517 -1.00882,-5.02401 -2.08944,-10.04535 -3.05028,-15.07875 -0.43885,-2.29896 -1.20693,-4.56858 -1.09349,-6.9063 0.1667,-3.43523 1.06569,-4.8799 1.89923,-7.25162 0.68991,-1.96305 1.72007,-3.95446 2.76252,-5.75525 0.91886,-1.5873 1.82633,-2.9586 2.99273,-4.37399 1.1753,-1.42619 2.63341,-2.70921 3.79847,-4.14378 1.62548,-2.00149 4.11753,-5.13214 5.77962,-7.10333 1.30405,-1.27177 4.15836,-4.33011 6.55806,-7.16969 1.32744,-1.57077 2.43951,-3.20933 3.68336,-4.8471 1.17437,-1.54628 2.42475,-2.8628 3.46584,-4.50178 1.03966,-1.63674 1.67268,-3.68895 2.61327,-5.38456 1.51935,-2.73895 3.40847,-5.28558 4.80027,-8.09149 1.10177,-2.221199 1.94108,-4.557858 2.8308,-6.872164 1.23276,-3.206612 2.61818,-6.357761 3.53412,-9.66882 0.71827,-2.596476 1.29396,-6.532789 1.68949,-9.197589 0.40418,-2.723118 0.50257,-4.655587 0.14485,-6.842562 -0.21545,-1.317141 -1.02173,-3.708095 -1.60413,-4.908961 -0.70121,-1.44583 -1.59001,-2.818713 -2.64742,-4.028675 -1.53909,-1.761142 -3.46486,-3.14762 -5.29483,-4.6042 -1.22494,-0.974997 -2.56698,-1.795806 -3.79846,-2.762521 -1.0279,-0.806901 -2.29056,-2.067758 -3.6204,-2.918569 -1.11581,-1.231919 -3.43804,-2.538299 -5.85363,-3.390153 -1.27954,-0.730045 -2.91955,-1.217744 -4.33857,-1.518418 -1.69283,-0.35869 -3.45487,-0.483799 -5.17973,-0.345315 -1.53076,0.122901 -3.10874,0.362916 -4.48909,1.035945 -0.9318,0.454323 -1.53685,1.207069 -2.41721,1.956785 -0.9643,-0.06508 -1.70024,0.06294 -2.76252,-0.05755 -1.32061,-1.357408 -2.57689,-2.798047 -3.5107,-4.201333 -0.92212,-1.385727 -1.79209,-2.772171 -2.24455,-4.373991 -0.42965,-1.521054 -0.69024,-3.213338 -0.34531,-4.489095 0.31445,-1.163032 1.57785,-2.197912 2.76252,-2.417205 1.88637,-0.349185 3.77334,0.82925 5.52504,1.61147 1.52629,0.681564 2.85021,1.747556 4.25888,2.647415 1.2376,0.790579 2.51503,1.527443 3.68336,2.417205 1.34099,1.021255 2.72358,2.077737 3.79847,3.338046 0.1,0.958304 0.34786,2.839426 0.34786,2.839426" style="fill:none;stroke:#000000;stroke-width:1.79999995;stroke-linecap:round;stroke-miterlimit:4;stroke-opacity:1;stroke-dasharray:none;display:inline" />
	<!-- 
	Generated using the Perl SVG Module V2.50
	by Ronan Oger
	Info: http://www.roitsystems.com/
 -->
</svg>